<?xml version="1.0" encoding="utf-8"?>
<!-- Generator: Adobe Illustrator 17.1.0, SVG Export Plug-In . SVG Version: 6.00 Build 0)  -->
<!DOCTYPE svg PUBLIC "-//W3C//DTD SVG 1.1//EN" "http://www.w3.org/Graphics/SVG/1.1/DTD/svg11.dtd">
<svg version="1.1" id="Layer_1" xmlns="http://www.w3.org/2000/svg" xmlns:xlink="http://www.w3.org/1999/xlink" x="0px" y="0px"
	 viewBox="0 0 302.7 130.5" enable-background="new 0 0 302.7 130.5" xml:space="preserve">
<g>
	<path fill="#595A5C" d="M49.3,67.5l23.1,12.8c1.2,0.6,1.9,1.2,2.3,1.7c0.4,0.5,0.6,1.2,0.6,1.9c0,1-0.4,1.9-1.1,2.6
		c-0.7,0.7-1.6,1.1-2.5,1.1c-0.6,0-1.6-0.3-2.8-1L34.5,67.5l34.4-19.1c1.3-0.7,2.2-1,2.8-1c1,0,1.8,0.4,2.5,1.1
		c0.7,0.7,1.1,1.6,1.1,2.6c0,0.8-0.2,1.4-0.6,1.9c-0.4,0.5-1.2,1.1-2.3,1.7L49.3,67.5z"/>
	<path fill="#595A5C" d="M220.4,43.6l-22.8,49.2c-0.6,1.2-1.1,2-1.6,2.4c-0.6,0.5-1.3,0.7-2.2,0.7c-1,0-1.8-0.3-2.5-1
		c-0.7-0.7-1.1-1.5-1.1-2.4c0-0.6,0.3-1.5,0.8-2.7l22.9-49.2c0.6-1.2,1.1-2,1.5-2.4c0.6-0.5,1.4-0.7,2.2-0.7c1,0,1.8,0.3,2.5,1
		c0.7,0.7,1,1.5,1,2.3C221.2,41.5,220.9,42.4,220.4,43.6z"/>
	<path fill="#595A5C" d="M254.3,67.5l-23.1-12.8c-1.2-0.6-1.9-1.2-2.3-1.7c-0.4-0.5-0.6-1.2-0.6-1.9c0-1,0.4-1.9,1.1-2.6
		c0.7-0.7,1.6-1.1,2.5-1.1c0.6,0,1.5,0.3,2.8,1l34.4,19.1l-34.4,19.1c-1.3,0.7-2.2,1-2.8,1c-1,0-1.8-0.4-2.5-1.1
		c-0.7-0.7-1.1-1.6-1.1-2.6c0-0.8,0.2-1.4,0.6-1.9c0.4-0.5,1.2-1.1,2.3-1.7L254.3,67.5z"/>
</g>
<path fill="#595A5C" d="M85.8,38v55.5h93.8V38H85.8z M173.9,87.8H91.1V81h82.9V87.8z M174.3,75.4H91.4v-6.8h82.9V75.4z M174.3,63
	h-41.6v-6.8h41.6V63z M174.3,50.5h-41.6v-6.8h41.6V50.5z"/>
<text transform="matrix(1 0 0 1 45.0991 112.3359)" display="none"><tspan x="0" y="0" display="inline" font-family="'Gotham-Bold'" font-size="24">C</tspan><tspan x="13" y="0" display="inline" font-family="'Gotham-Bold'" font-size="24">o</tspan><tspan x="25.7" y="0" display="inline" font-family="'Gotham-Bold'" font-size="24" letter-spacing="-1">d</tspan><tspan x="38.1" y="0" display="inline" font-family="'Gotham-Bold'" font-size="24">e </tspan><tspan x="57.1" y="0" display="inline" font-family="'Gotham-Bold'" font-size="24">f</tspan><tspan x="63.6" y="0" display="inline" font-family="'Gotham-Bold'" font-size="24">o</tspan><tspan x="75.9" y="0" display="inline" font-family="'Gotham-Bold'" font-size="24">r </tspan><tspan x="90.7" y="0" display="inline" font-family="'Gotham-Bold'" font-size="24">Am</tspan><tspan x="123.5" y="0" display="inline" font-family="'Gotham-Bold'" font-size="24">e</tspan><tspan x="134.9" y="0" display="inline" font-family="'Gotham-Bold'" font-size="24">r</tspan><tspan x="142.1" y="0" display="inline" font-family="'Gotham-Bold'" font-size="24">i</tspan><tspan x="147" y="0" display="inline" font-family="'Gotham-Bold'" font-size="24">c</tspan><tspan x="157.6" y="0" display="inline" font-family="'Gotham-Bold'" font-size="24">a</tspan></text>
<text transform="matrix(1 0 0 1 30.5127 115.0029)" display="none"><tspan x="0" y="0" display="inline" font-family="'Crank8-PlusTwo'" font-size="31">Cod</tspan><tspan x="50.6" y="0" display="inline" font-family="'Crank8-PlusTwo'" font-size="31">e </tspan><tspan x="72.7" y="0" display="inline" font-family="'Crank8-PlusTwo'" font-size="31" letter-spacing="-1">fo</tspan><tspan x="96.3" y="0" display="inline" font-family="'Crank8-PlusTwo'" font-size="31">r </tspan><tspan x="113" y="0" display="inline" font-family="'Crank8-PlusTwo'" font-size="31">A</tspan><tspan x="132.6" y="0" display="inline" font-family="'Crank8-PlusTwo'" font-size="31">me</tspan><tspan x="172.8" y="0" display="inline" font-family="'Crank8-PlusTwo'" font-size="31">r</tspan><tspan x="182.9" y="0" display="inline" font-family="'Crank8-PlusTwo'" font-size="31">i</tspan><tspan x="189.5" y="0" display="inline" font-family="'Crank8-PlusTwo'" font-size="31">ca</tspan></text>
</svg>
