<?xml version="1.0" encoding="utf-8"?>
<!-- Generator: Adobe Illustrator 17.1.0, SVG Export Plug-In . SVG Version: 6.00 Build 0)  -->
<!DOCTYPE svg PUBLIC "-//W3C//DTD SVG 1.1//EN" "http://www.w3.org/Graphics/SVG/1.1/DTD/svg11.dtd">
<svg version="1.1" id="Layer_1" xmlns="http://www.w3.org/2000/svg" xmlns:xlink="http://www.w3.org/1999/xlink" x="0px" y="0px"
	 viewBox="0 0 32 32" enable-background="new 0 0 32 32" xml:space="preserve">
<rect fill="#FFFFFF" width="32" height="32"/>
<g>
	<path fill="#41A8C4" d="M15.2,9.1c0.1,0.1,0.3,0.2,0.4,0.3c0.2,0.2,0.3,0.3,0.4,0.6c0.1,0.2,0.3,0.5,0.4,0.8c0.1,0.3,0.1,0.6,0.1,1
		c0,0.7-0.2,1.3-0.5,1.7c-0.1,0.2-0.3,0.4-0.5,0.6c-0.2,0.2-0.4,0.4-0.6,0.5c-0.1,0.1-0.2,0.3-0.3,0.4c-0.1,0.2-0.2,0.4-0.2,0.6
		c0,0.2,0.1,0.4,0.2,0.5c0.1,0.1,0.2,0.2,0.3,0.3l0.7,0.6c0.4,0.3,0.8,0.7,1.1,1.1c0.3,0.4,0.5,1,0.5,1.7c0,1-0.4,1.8-1.3,2.6
		c-0.9,0.8-2.2,1.2-3.8,1.2c-1.4,0-2.4-0.3-3.1-0.9c-0.7-0.5-1-1.2-1-2c0-0.4,0.1-0.8,0.3-1.2c0.2-0.5,0.6-0.9,1.2-1.2
		c0.6-0.4,1.3-0.6,2-0.7c0.7-0.1,1.3-0.2,1.8-0.2c-0.1-0.2-0.3-0.4-0.4-0.6c-0.1-0.2-0.2-0.5-0.2-0.8c0-0.2,0-0.3,0.1-0.4
		c0-0.1,0.1-0.2,0.1-0.3c-0.2,0-0.4,0-0.6,0c-1.1,0-1.9-0.3-2.4-1C9.3,13.7,9,13,9,12.1c0-1,0.4-1.9,1.2-2.7C10.8,9,11.4,8.7,12,8.5
		c0.6-0.1,1.2-0.2,1.7-0.2h4l-1.2,0.7H15.2z M16,20.6c0-0.5-0.2-1-0.5-1.3c-0.4-0.4-0.9-0.8-1.6-1.3c-0.1,0-0.3,0-0.4,0
		c-0.1,0-0.4,0-0.8,0c-0.4,0.1-0.8,0.2-1.3,0.3c-0.1,0-0.2,0.1-0.4,0.2c-0.2,0.1-0.4,0.2-0.6,0.4c-0.2,0.2-0.3,0.4-0.5,0.6
		c-0.1,0.3-0.2,0.6-0.2,0.9c0,0.7,0.3,1.3,1,1.7c0.6,0.5,1.4,0.7,2.5,0.7c0.9,0,1.7-0.2,2.2-0.6C15.8,21.8,16,21.3,16,20.6z
		 M13.2,14.8c0.5,0,1-0.2,1.3-0.6c0.2-0.3,0.3-0.5,0.3-0.8c0-0.3,0-0.5,0-0.7c0-0.8-0.2-1.6-0.6-2.4c-0.2-0.4-0.4-0.7-0.7-0.9
		C13.2,9.2,12.9,9,12.5,9c-0.5,0-1,0.2-1.4,0.7c-0.3,0.4-0.4,0.9-0.4,1.5c0,0.7,0.2,1.5,0.6,2.3c0.2,0.4,0.5,0.7,0.8,0.9
		C12.4,14.6,12.8,14.8,13.2,14.8z"/>
	<path fill="#41A8C4" d="M15.2,9.1c0.1,0.1,0.3,0.2,0.4,0.3c0.2,0.2,0.3,0.3,0.4,0.6c0.1,0.2,0.3,0.5,0.4,0.8c0.1,0.3,0.1,0.6,0.1,1
		c0,0.7-0.2,1.3-0.5,1.7c-0.1,0.2-0.3,0.4-0.5,0.6c-0.2,0.2-0.4,0.4-0.6,0.5c-0.1,0.1-0.2,0.3-0.3,0.4c-0.1,0.2-0.2,0.4-0.2,0.6
		c0,0.2,0.1,0.4,0.2,0.5c0.1,0.1,0.2,0.2,0.3,0.3l0.7,0.6c0.4,0.3,0.8,0.7,1.1,1.1c0.3,0.4,0.5,1,0.5,1.7c0,1-0.4,1.8-1.3,2.6
		c-0.9,0.8-2.2,1.2-3.8,1.2c-1.4,0-2.4-0.3-3.1-0.9c-0.7-0.5-1-1.2-1-2c0-0.4,0.1-0.8,0.3-1.2c0.2-0.5,0.6-0.9,1.2-1.2
		c0.6-0.4,1.3-0.6,2-0.7c0.7-0.1,1.3-0.2,1.8-0.2c-0.1-0.2-0.3-0.4-0.4-0.6c-0.1-0.2-0.2-0.5-0.2-0.8c0-0.2,0-0.3,0.1-0.4
		c0-0.1,0.1-0.2,0.1-0.3c-0.2,0-0.4,0-0.6,0c-1.1,0-1.9-0.3-2.4-1C9.3,13.7,9,13,9,12.1c0-1,0.4-1.9,1.2-2.7C10.8,9,11.4,8.7,12,8.5
		c0.6-0.1,1.2-0.2,1.7-0.2h4l-1.2,0.7H15.2z M16,20.6c0-0.5-0.2-1-0.5-1.3c-0.4-0.4-0.9-0.8-1.6-1.3c-0.1,0-0.3,0-0.4,0
		c-0.1,0-0.4,0-0.8,0c-0.4,0.1-0.8,0.2-1.3,0.3c-0.1,0-0.2,0.1-0.4,0.2c-0.2,0.1-0.4,0.2-0.6,0.4c-0.2,0.2-0.3,0.4-0.5,0.6
		c-0.1,0.3-0.2,0.6-0.2,0.9c0,0.7,0.3,1.3,1,1.7c0.6,0.5,1.4,0.7,2.5,0.7c0.9,0,1.7-0.2,2.2-0.6C15.8,21.8,16,21.3,16,20.6z
		 M13.2,14.8c0.5,0,1-0.2,1.3-0.6c0.2-0.3,0.3-0.5,0.3-0.8c0-0.3,0-0.5,0-0.7c0-0.8-0.2-1.6-0.6-2.4c-0.2-0.4-0.4-0.7-0.7-0.9
		C13.2,9.2,12.9,9,12.5,9c-0.5,0-1,0.2-1.4,0.7c-0.3,0.4-0.4,0.9-0.4,1.5c0,0.7,0.2,1.5,0.6,2.3c0.2,0.4,0.5,0.7,0.8,0.9
		C12.4,14.6,12.8,14.8,13.2,14.8z"/>
	<path fill-rule="evenodd" clip-rule="evenodd" fill="#41A8C4" d="M20.6,12.5h1.2v5.4h-1.2V12.5z"/>
	<path fill-rule="evenodd" clip-rule="evenodd" fill="#41A8C4" d="M23.9,14.6v1.2h-5.4v-1.2H23.9z"/>
	<path fill-rule="evenodd" clip-rule="evenodd" fill="#41A8C4" d="M20.6,12.5h1.2v5.5h-1.2V12.5z"/>
	<path fill-rule="evenodd" clip-rule="evenodd" fill="#41A8C4" d="M24,14.6v1.2h-5.5v-1.2H24z"/>
</g>
</svg>
